<?xml version="1.0" encoding="UTF-8"?>
<svg id="Layer_2" xmlns="http://www.w3.org/2000/svg" version="1.1" viewBox="0 0 500 500">
  <!-- Generator: Adobe Illustrator 30.2.1, SVG Export Plug-In . SVG Version: 2.1.1 Build 1)  -->
  <defs>
    <style>
      .st0 {
        fill: #1e1e1e;
      }
    </style>
  </defs>
  <path class="st0" d="M207.38,307.2c-4.42-54.99-4.17-109.07-1.35-159.8l-52.59,38.21c-12.53,9.1-17.77,25.24-12.99,39.97l10.3,31.71c16.74,17.07,37.02,36.02,56.63,49.9h0Z"/>
  <path class="st0" d="M346.56,185.62l-54.97-39.94c1.92,52.75,2,109.56-1.23,168.02,18.39-11.45,38.05-28.6,55.29-45.37l13.89-42.75c4.79-14.73-.46-30.87-12.99-39.97h0Z"/>
  <path class="st0" d="M290.43,118.56l73.86,53.66c10.33,7.51,23.89,8.93,35.55,3.74l43.35-19.3c20.23-9.01,27.47-34.04,15.23-52.49C425.75,54.96,376.12,17.98,317.87,1.59c-13.18-3.71-26.45.39-35.27,9.23,3.1,32.63,5.92,68.9,7.83,107.75h0Z"/>
  <path class="st0" d="M499.85,233.47c-.77-22.17-21.48-38.21-43.17-33.6l-31.56,6.71c6.05,1.29,11.81,4.26,16.51,8.96,12.95,12.95,12.95,25.99,0,38.94,0,0-49.74,47.87-91.39,90.65.74,7.46,3.81,14.62,8.99,20.37l31.29,34.75c14.75,16.38,40.66,15.64,54.47-1.54,34.42-42.83,55.02-97.24,55.02-156.46,0-2.94-.05-5.87-.15-8.79h0Z"/>
  <path class="st0" d="M331.85,379.8c-1.83-3.16-4.11-5.96-6.71-8.37-11.99,12.88-21.65,23.9-26.75,31-23.45,32.66-64.3,33.1-87.39,0-5.53-7.93-16.76-20.56-30.61-35.18-4.97,3.06-9.2,7.32-12.22,12.55l-25.8,44.68c-11.01,19.07-2.31,43.43,18.25,51.31,27.76,10.64,57.89,16.47,89.39,16.47s61.63-5.83,89.39-16.47c20.56-7.88,29.26-32.24,18.25-51.31l-25.8-44.68h0Z"/>
  <path class="st0" d="M57,156.38l43.99,19.58c11.67,5.19,25.22,3.77,35.55-3.74l71.25-51.77c2.89-38.9,7.13-75.45,11.71-108.48-8.75-9.76-22.64-14.49-36.46-10.65C124.52,17.56,74.64,54.54,41.8,103.84c-12.29,18.45-5.06,43.52,15.19,52.54h.01Z"/>
  <path class="st0" d="M153.24,339.38c-40.99-41.24-87.38-84.9-87.38-84.9-12.95-12.95-12.95-25.99,0-38.94,4.2-4.2,9.25-7.01,14.59-8.49l-37.1-7.89C21.67,194.55,1.01,210.58.18,232.74c-.12,3.16-.18,6.33-.18,9.52,0,60.23,21.31,115.49,56.79,158.64,13.93,16.94,39.62,17.62,54.29,1.32l33.06-36.71c6.5-7.22,9.69-16.67,9.1-26.13h0Z"/>
</svg>